<svg width="1747" height="415" viewBox="0 0 1747 415" fill="none" xmlns="http://www.w3.org/2000/svg">
<path d="M873.344 377.143C873.677 377.477 873.844 377.91 873.844 378.443C873.844 379.31 873.277 380.177 872.144 381.043C871.011 381.977 869.444 382.777 867.444 383.443C865.511 384.11 863.311 384.443 860.844 384.443C857.444 384.443 854.377 383.643 851.644 382.043C848.977 380.377 846.877 378.11 845.344 375.243C843.877 372.376 843.144 369.143 843.144 365.543C843.144 362.077 843.911 358.91 845.444 356.043C846.911 353.177 849.044 350.877 851.844 349.143C854.577 347.477 857.711 346.643 861.244 346.643C863.444 346.643 865.511 346.877 867.444 347.343C869.377 347.877 870.911 348.577 872.044 349.443C873.244 350.243 873.844 351.143 873.844 352.143C873.844 352.677 873.644 353.143 873.244 353.543C872.911 354.01 872.477 354.243 871.944 354.243C871.477 354.243 871.077 354.143 870.744 353.943C870.477 353.743 870.144 353.443 869.744 353.043C869.144 352.443 868.544 352.01 867.944 351.743C867.277 351.41 866.344 351.143 865.144 350.943C864.011 350.743 862.777 350.643 861.444 350.643C858.844 350.643 856.477 351.277 854.344 352.543C852.144 353.877 850.444 355.677 849.244 357.943C848.044 360.21 847.444 362.743 847.444 365.543C847.444 368.343 848.011 370.877 849.144 373.143C850.344 375.41 852.011 377.21 854.144 378.543C856.211 379.81 858.611 380.443 861.344 380.443C863.011 380.443 864.344 380.31 865.344 380.043C866.411 379.777 867.444 379.377 868.444 378.843C868.777 378.643 869.344 378.21 870.144 377.543C870.477 377.21 870.811 376.977 871.144 376.843C871.411 376.643 871.711 376.543 872.044 376.543C872.577 376.543 873.011 376.743 873.344 377.143Z" fill="black"/>
<path fill-rule="evenodd" clip-rule="evenodd" d="M921.644 355.943C923.244 358.81 924.044 362.01 924.044 365.543C924.044 369.143 923.244 372.376 921.644 375.243C920.111 378.11 917.977 380.377 915.244 382.043C912.511 383.643 909.444 384.443 906.044 384.443C902.711 384.443 899.677 383.643 896.944 382.043C894.211 380.377 892.044 378.11 890.444 375.243C888.911 372.376 888.144 369.143 888.144 365.543C888.144 362.01 888.911 358.81 890.444 355.943C892.044 353.077 894.211 350.81 896.944 349.143C899.677 347.477 902.711 346.643 906.044 346.643C909.444 346.643 912.511 347.477 915.244 349.143C917.977 350.81 920.111 353.077 921.644 355.943ZM919.744 365.543C919.744 362.743 919.177 360.21 918.044 357.943C916.844 355.677 915.177 353.877 913.044 352.543C910.977 351.277 908.644 350.643 906.044 350.643C903.511 350.643 901.211 351.277 899.144 352.543C897.077 353.877 895.444 355.677 894.244 357.943C892.977 360.21 892.344 362.743 892.344 365.543C892.344 368.343 892.977 370.877 894.244 373.143C895.444 375.41 897.077 377.21 899.144 378.543C901.211 379.81 903.511 380.443 906.044 380.443C908.644 380.443 910.977 379.81 913.044 378.543C915.177 377.277 916.844 375.51 918.044 373.243C919.177 370.976 919.744 368.41 919.744 365.543Z" fill="black"/>
<path d="M968.044 350.543C970.111 353.077 971.144 356.476 971.144 360.743V381.643C971.144 382.243 970.944 382.743 970.544 383.143C970.077 383.543 969.577 383.743 969.044 383.743C968.444 383.743 967.944 383.543 967.544 383.143C967.077 382.743 966.844 382.243 966.844 381.643V360.943C966.844 357.877 966.077 355.377 964.544 353.443C963.011 351.577 960.644 350.643 957.444 350.643C955.444 350.643 953.511 351.11 951.644 352.043C949.844 352.977 948.377 354.243 947.244 355.843C946.111 357.443 945.544 359.143 945.544 360.943V381.643C945.544 382.243 945.344 382.743 944.944 383.143C944.544 383.543 944.044 383.743 943.444 383.743C942.777 383.743 942.244 383.543 941.844 383.143C941.444 382.743 941.244 382.243 941.244 381.643V349.843C941.244 349.243 941.444 348.743 941.844 348.343C942.244 347.943 942.777 347.743 943.444 347.743C944.044 347.743 944.544 347.943 944.944 348.343C945.344 348.743 945.544 349.243 945.544 349.843V353.743C946.811 351.676 948.644 349.977 951.044 348.643C953.444 347.31 955.877 346.643 958.344 346.643C962.744 346.643 965.977 347.943 968.044 350.543Z" fill="black"/>
<path d="M1009.34 334.043C1009.34 334.643 1009.14 335.11 1008.74 335.443C1008.34 335.843 1007.91 336.043 1007.44 336.043C1007.04 336.043 1006.54 335.943 1005.94 335.743C1004.88 335.41 1004.04 335.243 1003.44 335.243C1001.91 335.243 1000.74 335.743 999.944 336.743C999.077 337.743 998.644 339.11 998.644 340.843V348.143H1006.64C1007.18 348.143 1007.64 348.343 1008.04 348.743C1008.44 349.143 1008.64 349.61 1008.64 350.143C1008.64 350.743 1008.44 351.243 1008.04 351.643C1007.64 351.977 1007.18 352.143 1006.64 352.143H998.644V381.643C998.644 382.243 998.444 382.743 998.044 383.143C997.644 383.543 997.144 383.743 996.544 383.743C995.944 383.743 995.444 383.543 995.044 383.143C994.644 382.743 994.444 382.243 994.444 381.643V352.143H989.244C988.644 352.143 988.177 351.943 987.844 351.543C987.444 351.143 987.244 350.677 987.244 350.143C987.244 349.543 987.444 349.076 987.844 348.743C988.177 348.343 988.644 348.143 989.244 348.143H994.444V340.843C994.444 337.91 995.311 335.61 997.044 333.943C998.777 332.343 1001.08 331.543 1003.94 331.543C1005.28 331.543 1006.51 331.743 1007.64 332.143C1008.78 332.543 1009.34 333.177 1009.34 334.043Z" fill="black"/>
<path fill-rule="evenodd" clip-rule="evenodd" d="M1052.64 354.443C1054.18 356.977 1054.98 360.01 1055.04 363.543C1055.04 364.077 1054.81 364.543 1054.34 364.943C1053.94 365.343 1053.44 365.543 1052.84 365.543H1026.04C1026.04 368.41 1026.64 370.976 1027.84 373.243C1028.98 375.443 1030.61 377.21 1032.74 378.543C1034.94 379.81 1037.51 380.443 1040.44 380.443C1042.71 380.443 1044.74 379.977 1046.54 379.043C1048.34 378.11 1049.78 376.91 1050.84 375.443C1051.38 375.043 1051.88 374.843 1052.34 374.843C1052.81 374.843 1053.24 375.01 1053.64 375.343C1053.98 375.743 1054.14 376.177 1054.14 376.643C1054.14 377.177 1053.91 377.677 1053.44 378.143C1051.91 380.01 1050.01 381.51 1047.74 382.643C1045.48 383.843 1043.04 384.443 1040.44 384.443C1036.84 384.443 1033.64 383.677 1030.84 382.143C1028.04 380.543 1025.88 378.343 1024.34 375.543C1022.74 372.743 1021.94 369.476 1021.94 365.743C1021.94 361.876 1022.71 358.51 1024.24 355.643C1025.78 352.71 1027.84 350.477 1030.44 348.943C1032.98 347.41 1035.68 346.643 1038.54 346.643C1041.41 346.643 1044.08 347.31 1046.54 348.643C1049.01 349.977 1051.04 351.91 1052.64 354.443ZM1050.64 361.143C1050.38 359.01 1049.64 357.177 1048.44 355.643C1047.31 354.043 1045.84 352.81 1044.04 351.943C1042.31 351.143 1040.48 350.743 1038.54 350.743C1035.81 350.743 1033.28 351.677 1030.94 353.543C1028.61 355.477 1027.11 358.21 1026.44 361.743H1050.64V361.143Z" fill="black"/>
<path d="M1077.24 338.743V339.443C1077.24 340.31 1076.98 340.977 1076.44 341.443C1075.98 341.843 1075.28 342.043 1074.34 342.043C1073.41 342.043 1072.68 341.843 1072.14 341.443C1071.61 340.977 1071.34 340.31 1071.34 339.443V338.743C1071.34 337.876 1071.61 337.243 1072.14 336.843C1072.68 336.377 1073.41 336.143 1074.34 336.143C1076.28 336.143 1077.24 337.01 1077.24 338.743Z" fill="black"/>
<path d="M1075.84 347.443C1076.24 347.843 1076.44 348.343 1076.44 348.943V381.643C1076.44 382.243 1076.24 382.743 1075.84 383.143C1075.44 383.543 1074.94 383.743 1074.34 383.743C1073.74 383.743 1073.24 383.543 1072.84 383.143C1072.38 382.743 1072.14 382.243 1072.14 381.643V348.943C1072.14 348.343 1072.38 347.843 1072.84 347.443C1073.24 347.043 1073.74 346.843 1074.34 346.843C1074.94 346.843 1075.44 347.043 1075.84 347.443Z" fill="black"/>
<path d="M1111.64 348.243C1112.04 348.71 1112.24 349.177 1112.24 349.643C1112.24 350.243 1112.04 350.71 1111.64 351.043C1111.24 351.443 1110.78 351.643 1110.24 351.643H1103.14V375.343C1103.14 377.143 1103.48 378.377 1104.14 379.043C1104.81 379.643 1105.68 379.943 1106.74 379.943C1107.01 379.943 1107.38 379.91 1107.84 379.843C1108.24 379.71 1108.58 379.643 1108.84 379.643C1109.24 379.643 1109.61 379.81 1109.94 380.143C1110.21 380.477 1110.34 380.91 1110.34 381.443C1110.34 382.11 1109.98 382.643 1109.24 383.043C1108.51 383.51 1107.61 383.743 1106.54 383.743C1105.28 383.743 1104.14 383.61 1103.14 383.343C1102.14 383.143 1101.18 382.443 1100.24 381.243C1099.31 380.043 1098.84 378.143 1098.84 375.543V351.643H1093.64C1093.11 351.643 1092.64 351.443 1092.24 351.043C1091.84 350.643 1091.64 350.177 1091.64 349.643C1091.64 349.043 1091.84 348.543 1092.24 348.143C1092.64 347.81 1093.11 347.643 1093.64 347.643H1098.84V339.743C1098.84 339.143 1099.04 338.643 1099.44 338.243C1099.84 337.843 1100.38 337.643 1101.04 337.643C1101.64 337.643 1102.14 337.843 1102.54 338.243C1102.94 338.643 1103.14 339.143 1103.14 339.743V347.643H1110.24C1110.78 347.643 1111.24 347.843 1111.64 348.243Z" fill="black"/>
<path fill-rule="evenodd" clip-rule="evenodd" d="M1159.54 348.143C1159.94 348.543 1160.14 349.043 1160.14 349.643V381.643C1160.14 382.243 1159.94 382.743 1159.54 383.143C1159.14 383.543 1158.64 383.743 1158.04 383.743C1157.44 383.743 1156.94 383.543 1156.54 383.143C1156.14 382.743 1155.94 382.243 1155.94 381.643V376.843C1154.74 378.977 1152.98 380.776 1150.64 382.243C1148.24 383.71 1145.64 384.443 1142.84 384.443C1139.71 384.443 1136.88 383.61 1134.34 381.943C1131.81 380.277 1129.81 378.01 1128.34 375.143C1126.88 372.277 1126.14 369.043 1126.14 365.443C1126.14 361.843 1126.88 358.61 1128.34 355.743C1129.81 352.876 1131.81 350.643 1134.34 349.043C1136.88 347.443 1139.71 346.643 1142.84 346.643C1145.64 346.643 1148.24 347.31 1150.64 348.643C1152.98 350.043 1154.74 351.843 1155.94 354.043V349.643C1155.94 349.043 1156.14 348.543 1156.54 348.143C1156.94 347.677 1157.44 347.443 1158.04 347.443C1158.64 347.443 1159.14 347.677 1159.54 348.143ZM1156.24 365.443C1156.24 362.71 1155.68 360.21 1154.54 357.943C1153.41 355.677 1151.88 353.877 1149.94 352.543C1147.94 351.277 1145.71 350.643 1143.24 350.643C1140.84 350.643 1138.64 351.277 1136.64 352.543C1134.71 353.81 1133.18 355.577 1132.04 357.843C1130.91 360.043 1130.34 362.577 1130.34 365.443C1130.34 368.243 1130.91 370.81 1132.04 373.143C1133.11 375.41 1134.61 377.21 1136.54 378.543C1138.54 379.81 1140.78 380.443 1143.24 380.443C1145.71 380.443 1147.94 379.81 1149.94 378.543C1151.88 377.21 1153.41 375.41 1154.54 373.143C1155.68 370.81 1156.24 368.243 1156.24 365.443Z" fill="black"/>
<path d="M1200.44 348.943C1200.44 349.61 1200.28 350.143 1199.94 350.543C1199.54 350.943 1199.08 351.143 1198.54 351.143C1198.34 351.143 1197.88 351.01 1197.14 350.743C1196.48 350.476 1195.84 350.343 1195.24 350.343C1193.51 350.343 1191.78 351.043 1190.04 352.443C1188.31 353.777 1186.88 355.51 1185.74 357.643C1184.61 359.777 1184.04 361.91 1184.04 364.043V381.643C1184.04 382.243 1183.84 382.743 1183.44 383.143C1183.04 383.543 1182.54 383.743 1181.94 383.743C1181.34 383.743 1180.84 383.543 1180.44 383.143C1180.04 382.743 1179.84 382.243 1179.84 381.643V349.843C1179.84 349.243 1180.04 348.743 1180.44 348.343C1180.84 347.943 1181.34 347.743 1181.94 347.743C1182.54 347.743 1183.04 347.943 1183.44 348.343C1183.84 348.743 1184.04 349.243 1184.04 349.843V356.043C1185.18 353.377 1186.84 351.143 1189.04 349.343C1191.24 347.61 1193.84 346.71 1196.84 346.643C1197.78 346.643 1198.61 346.843 1199.34 347.243C1200.08 347.576 1200.44 348.143 1200.44 348.943Z" fill="black"/>
<path d="M1220.54 338.743V339.443C1220.54 340.31 1220.31 340.977 1219.84 341.443C1219.31 341.843 1218.58 342.043 1217.64 342.043C1216.71 342.043 1215.98 341.843 1215.44 341.443C1214.91 340.977 1214.64 340.31 1214.64 339.443V338.743C1214.64 337.876 1214.91 337.243 1215.44 336.843C1216.04 336.377 1216.81 336.143 1217.74 336.143C1219.61 336.143 1220.54 337.01 1220.54 338.743Z" fill="black"/>
<path d="M1219.14 347.443C1219.54 347.843 1219.74 348.343 1219.74 348.943V381.643C1219.74 382.243 1219.54 382.743 1219.14 383.143C1218.74 383.543 1218.24 383.743 1217.64 383.743C1217.04 383.743 1216.54 383.543 1216.14 383.143C1215.74 382.743 1215.54 382.243 1215.54 381.643V348.943C1215.54 348.343 1215.74 347.843 1216.14 347.443C1216.54 347.043 1217.04 346.843 1217.64 346.843C1218.24 346.843 1218.74 347.043 1219.14 347.443Z" fill="black"/>
<path fill-rule="evenodd" clip-rule="evenodd" d="M1270.34 348.143C1270.74 348.543 1270.94 349.043 1270.94 349.643V381.643C1270.94 382.243 1270.74 382.743 1270.34 383.143C1269.94 383.543 1269.44 383.743 1268.84 383.743C1268.18 383.743 1267.64 383.543 1267.24 383.143C1266.84 382.743 1266.64 382.243 1266.64 381.643V376.843C1265.51 378.977 1263.74 380.776 1261.34 382.243C1259.01 383.71 1256.44 384.443 1253.64 384.443C1250.44 384.443 1247.58 383.61 1245.04 381.943C1242.51 380.277 1240.54 378.01 1239.14 375.143C1237.68 372.277 1236.94 369.043 1236.94 365.443C1236.94 361.843 1237.68 358.61 1239.14 355.743C1240.61 352.876 1242.61 350.643 1245.14 349.043C1247.68 347.443 1250.48 346.643 1253.54 346.643C1256.41 346.643 1259.01 347.31 1261.34 348.643C1263.74 350.043 1265.51 351.843 1266.64 354.043V349.643C1266.64 349.043 1266.84 348.543 1267.24 348.143C1267.64 347.677 1268.18 347.443 1268.84 347.443C1269.44 347.443 1269.94 347.677 1270.34 348.143ZM1266.94 365.443C1266.94 362.71 1266.41 360.21 1265.34 357.943C1264.21 355.677 1262.64 353.877 1260.64 352.543C1258.71 351.277 1256.51 350.643 1254.04 350.643C1251.58 350.643 1249.38 351.277 1247.44 352.543C1245.44 353.81 1243.91 355.577 1242.84 357.843C1241.71 360.043 1241.14 362.577 1241.14 365.443C1241.14 368.243 1241.68 370.81 1242.74 373.143C1243.88 375.41 1245.41 377.21 1247.34 378.543C1249.34 379.81 1251.58 380.443 1254.04 380.443C1256.51 380.443 1258.71 379.81 1260.64 378.543C1262.64 377.21 1264.21 375.41 1265.34 373.143C1266.41 370.81 1266.94 368.243 1266.94 365.443Z" fill="black"/>
<path fill-rule="evenodd" clip-rule="evenodd" d="M1348.94 348.643C1349.34 349.043 1349.54 349.543 1349.54 350.143V381.643C1349.54 382.243 1349.34 382.743 1348.94 383.143C1348.54 383.543 1348.04 383.743 1347.44 383.743C1346.84 383.743 1346.34 383.543 1345.94 383.143C1345.54 382.743 1345.34 382.243 1345.34 381.643V376.943C1344.14 379.077 1342.38 380.843 1340.04 382.243C1337.71 383.71 1335.18 384.443 1332.44 384.443C1329.31 384.443 1326.51 383.643 1324.04 382.043C1321.51 380.377 1319.54 378.11 1318.14 375.243C1316.74 372.443 1316.04 369.276 1316.04 365.743C1316.04 362.143 1316.78 358.943 1318.24 356.143C1319.64 353.343 1321.61 351.143 1324.14 349.543C1326.61 347.943 1329.34 347.143 1332.34 347.143C1335.14 347.143 1337.71 347.81 1340.04 349.143C1342.38 350.543 1344.14 352.343 1345.34 354.543V350.143C1345.34 349.543 1345.54 349.043 1345.94 348.643C1346.34 348.243 1346.84 348.043 1347.44 348.043C1348.04 348.043 1348.54 348.243 1348.94 348.643ZM1345.64 365.743C1345.64 363.01 1345.08 360.51 1343.94 358.243C1342.88 356.043 1341.38 354.31 1339.44 353.043C1337.51 351.71 1335.31 351.043 1332.84 351.043C1330.44 351.043 1328.28 351.677 1326.34 352.943C1324.41 354.21 1322.91 355.943 1321.84 358.143C1320.71 360.41 1320.14 362.943 1320.14 365.743C1320.14 368.543 1320.68 371.043 1321.74 373.243C1322.81 375.51 1324.31 377.31 1326.24 378.643C1328.18 379.91 1330.38 380.543 1332.84 380.543C1335.31 380.543 1337.51 379.91 1339.44 378.643C1341.38 377.31 1342.88 375.51 1343.94 373.243C1345.08 371.043 1345.64 368.543 1345.64 365.743Z" fill="black"/>
<path d="M1394.84 349.443C1394.84 350.043 1394.64 350.543 1394.24 350.943C1393.91 351.343 1393.48 351.543 1392.94 351.543C1392.74 351.543 1392.31 351.443 1391.64 351.243C1390.91 350.976 1390.24 350.843 1389.64 350.843C1387.91 350.843 1386.21 351.51 1384.54 352.843C1382.81 354.177 1381.41 355.91 1380.34 358.043C1379.28 360.11 1378.74 362.21 1378.74 364.343V381.643C1378.74 382.243 1378.54 382.743 1378.14 383.143C1377.74 383.543 1377.24 383.743 1376.64 383.743C1375.98 383.743 1375.44 383.543 1375.04 383.143C1374.71 382.743 1374.54 382.243 1374.54 381.643V350.343C1374.54 349.743 1374.71 349.243 1375.04 348.843C1375.44 348.443 1375.98 348.243 1376.64 348.243C1377.24 348.243 1377.74 348.443 1378.14 348.843C1378.54 349.243 1378.74 349.743 1378.74 350.343V356.443C1379.81 353.777 1381.41 351.577 1383.54 349.843C1385.74 348.11 1388.31 347.21 1391.24 347.143C1392.18 347.143 1393.01 347.343 1393.74 347.743C1394.48 348.076 1394.84 348.643 1394.84 349.443Z" fill="black"/>
<path d="M1430.74 348.743C1431.14 349.21 1431.34 349.677 1431.34 350.143C1431.34 350.743 1431.18 351.21 1430.84 351.543C1430.44 351.877 1429.98 352.043 1429.44 352.043H1422.44V375.443C1422.44 377.243 1422.74 378.443 1423.34 379.043C1424.01 379.71 1424.88 380.043 1425.94 380.043C1426.21 380.043 1426.58 379.977 1427.04 379.843C1427.44 379.71 1427.78 379.643 1428.04 379.643C1428.44 379.643 1428.78 379.843 1429.04 380.243C1429.38 380.576 1429.54 380.977 1429.54 381.443C1429.54 382.11 1429.18 382.643 1428.44 383.043C1427.71 383.51 1426.81 383.743 1425.74 383.743C1424.48 383.743 1423.38 383.61 1422.44 383.343C1421.44 383.143 1420.48 382.477 1419.54 381.343C1418.68 380.143 1418.24 378.276 1418.24 375.743V352.043H1413.14C1412.54 352.043 1412.04 351.877 1411.64 351.543C1411.24 351.143 1411.04 350.677 1411.04 350.143C1411.04 349.543 1411.24 349.076 1411.64 348.743C1412.04 348.343 1412.54 348.143 1413.14 348.143H1418.24V340.343C1418.24 339.743 1418.44 339.243 1418.84 338.843C1419.24 338.443 1419.74 338.243 1420.34 338.243C1420.94 338.243 1421.44 338.443 1421.84 338.843C1422.24 339.243 1422.44 339.743 1422.44 340.343V348.143H1429.44C1429.91 348.143 1430.34 348.343 1430.74 348.743Z" fill="black"/>
<path fill-rule="evenodd" clip-rule="evenodd" d="M1480.64 354.843C1482.18 357.377 1482.94 360.377 1482.94 363.843C1482.94 364.377 1482.74 364.843 1482.34 365.243C1481.94 365.643 1481.44 365.843 1480.84 365.843H1454.44C1454.44 368.643 1455.01 371.143 1456.14 373.343C1457.28 375.543 1458.91 377.31 1461.04 378.643C1463.18 379.91 1465.68 380.543 1468.54 380.543C1470.81 380.543 1472.81 380.077 1474.54 379.143C1476.34 378.21 1477.78 377.01 1478.84 375.543C1479.38 375.143 1479.88 374.943 1480.34 374.943C1480.81 374.943 1481.21 375.11 1481.54 375.443C1481.94 375.843 1482.14 376.276 1482.14 376.743C1482.14 377.276 1481.91 377.776 1481.44 378.243C1479.98 380.043 1478.11 381.51 1475.84 382.643C1473.58 383.843 1471.18 384.443 1468.64 384.443C1465.04 384.443 1461.88 383.677 1459.14 382.143C1456.41 380.61 1454.24 378.443 1452.64 375.643C1451.11 372.91 1450.34 369.71 1450.34 366.043C1450.34 362.243 1451.11 358.91 1452.64 356.043C1454.18 353.177 1456.21 350.977 1458.74 349.443C1461.21 347.91 1463.88 347.143 1466.74 347.143C1469.54 347.143 1472.18 347.81 1474.64 349.143C1477.04 350.41 1479.04 352.31 1480.64 354.843ZM1478.64 361.543C1478.38 359.41 1477.68 357.577 1476.54 356.043C1475.34 354.443 1473.88 353.243 1472.14 352.443C1470.41 351.643 1468.61 351.243 1466.74 351.243C1464.01 351.243 1461.51 352.177 1459.24 354.043C1456.91 355.91 1455.41 358.577 1454.74 362.043H1478.64V361.543Z" fill="black"/>
<path d="M1528.34 369.143C1529.34 370.477 1529.84 372.277 1529.84 374.543C1529.84 377.543 1528.64 379.943 1526.24 381.743C1523.78 383.543 1520.74 384.443 1517.14 384.443C1511.48 384.443 1506.98 382.31 1503.64 378.043C1503.24 377.443 1503.04 376.943 1503.04 376.543C1503.04 375.943 1503.34 375.477 1503.94 375.143C1504.21 374.877 1504.58 374.743 1505.04 374.743C1505.64 374.743 1506.18 374.977 1506.64 375.443C1509.38 379.043 1513.04 380.843 1517.64 380.843C1519.84 380.843 1521.78 380.343 1523.44 379.343C1525.11 378.277 1525.94 376.743 1525.94 374.743C1525.94 372.743 1525.18 371.277 1523.64 370.343C1522.11 369.343 1519.94 368.51 1517.14 367.843C1513.28 366.843 1510.24 365.543 1508.04 363.943C1505.91 362.41 1504.84 360.143 1504.84 357.143C1504.84 355.21 1505.38 353.477 1506.44 351.943C1507.51 350.41 1508.94 349.243 1510.74 348.443C1512.61 347.577 1514.71 347.143 1517.04 347.143C1519.04 347.143 1521.04 347.543 1523.04 348.343C1525.11 349.077 1526.88 350.277 1528.34 351.943C1528.74 352.277 1528.94 352.743 1528.94 353.343C1528.94 353.943 1528.71 354.443 1528.24 354.843C1527.91 355.11 1527.48 355.243 1526.94 355.243C1526.48 355.243 1526.08 355.076 1525.74 354.743C1524.61 353.476 1523.28 352.51 1521.74 351.843C1520.21 351.177 1518.54 350.843 1516.74 350.843C1514.54 350.843 1512.68 351.377 1511.14 352.443C1509.54 353.443 1508.74 354.977 1508.74 357.043C1508.88 358.91 1509.74 360.31 1511.34 361.243C1512.94 362.243 1515.31 363.143 1518.44 363.943C1520.84 364.543 1522.84 365.21 1524.44 365.943C1526.04 366.743 1527.34 367.81 1528.34 369.143Z" fill="black"/>
<path fill-rule="evenodd" clip-rule="evenodd" d="M1583.54 348.643C1583.94 349.043 1584.14 349.543 1584.14 350.143V381.643C1584.14 382.243 1583.94 382.743 1583.54 383.143C1583.14 383.543 1582.64 383.743 1582.04 383.743C1581.44 383.743 1580.94 383.543 1580.54 383.143C1580.14 382.743 1579.94 382.243 1579.94 381.643V376.943C1578.74 379.077 1576.98 380.843 1574.64 382.243C1572.31 383.71 1569.78 384.443 1567.04 384.443C1563.91 384.443 1561.11 383.643 1558.64 382.043C1556.11 380.377 1554.14 378.11 1552.74 375.243C1551.34 372.443 1550.64 369.276 1550.64 365.743C1550.64 362.143 1551.34 358.943 1552.74 356.143C1554.21 353.343 1556.18 351.143 1558.64 349.543C1561.18 347.943 1563.94 347.143 1566.94 347.143C1569.74 347.143 1572.31 347.81 1574.64 349.143C1576.98 350.543 1578.74 352.343 1579.94 354.543V350.143C1579.94 349.543 1580.14 349.043 1580.54 348.643C1580.94 348.243 1581.44 348.043 1582.04 348.043C1582.64 348.043 1583.14 348.243 1583.54 348.643ZM1580.24 365.743C1580.18 363.01 1579.61 360.51 1578.54 358.243C1577.48 356.043 1575.98 354.31 1574.04 353.043C1572.11 351.71 1569.91 351.043 1567.44 351.043C1565.04 351.043 1562.88 351.677 1560.94 352.943C1559.01 354.21 1557.48 355.943 1556.34 358.143C1555.28 360.41 1554.74 362.943 1554.74 365.743C1554.74 368.543 1555.28 371.043 1556.34 373.243C1557.41 375.51 1558.91 377.31 1560.84 378.643C1562.78 379.91 1564.98 380.543 1567.44 380.543C1569.91 380.543 1572.11 379.91 1574.04 378.643C1575.98 377.31 1577.48 375.51 1578.54 373.243C1579.61 371.043 1580.18 368.543 1580.24 365.743Z" fill="black"/>
<path d="M1635.44 350.943C1637.51 353.477 1638.54 356.843 1638.54 361.043V381.643C1638.54 382.243 1638.34 382.743 1637.94 383.143C1637.48 383.543 1636.98 383.743 1636.44 383.743C1635.84 383.743 1635.34 383.543 1634.94 383.143C1634.54 382.743 1634.34 382.243 1634.34 381.643V361.243C1634.34 358.243 1633.58 355.81 1632.04 353.943C1630.51 352.01 1628.18 351.043 1625.04 351.043C1623.04 351.043 1621.14 351.51 1619.34 352.443C1617.54 353.377 1616.08 354.643 1614.94 356.243C1613.81 357.776 1613.24 359.443 1613.24 361.243V381.643C1613.24 382.243 1613.04 382.743 1612.64 383.143C1612.24 383.543 1611.74 383.743 1611.14 383.743C1610.54 383.743 1610.04 383.543 1609.64 383.143C1609.24 382.743 1609.04 382.243 1609.04 381.643V350.343C1609.04 349.743 1609.24 349.243 1609.64 348.843C1610.04 348.443 1610.54 348.243 1611.14 348.243C1611.74 348.243 1612.24 348.443 1612.64 348.843C1613.04 349.243 1613.24 349.743 1613.24 350.343V354.143C1614.51 352.143 1616.34 350.477 1618.74 349.143C1621.08 347.81 1623.48 347.143 1625.94 347.143C1630.28 347.143 1633.44 348.41 1635.44 350.943Z" fill="black"/>
<path fill-rule="evenodd" clip-rule="evenodd" d="M1694.04 348.643C1694.44 349.043 1694.64 349.543 1694.64 350.143V381.643C1694.64 382.243 1694.44 382.743 1694.04 383.143C1693.64 383.543 1693.14 383.743 1692.54 383.743C1691.94 383.743 1691.44 383.543 1691.04 383.143C1690.64 382.743 1690.44 382.243 1690.44 381.643V376.943C1689.24 379.077 1687.48 380.843 1685.14 382.243C1682.81 383.71 1680.28 384.443 1677.54 384.443C1674.41 384.443 1671.61 383.643 1669.14 382.043C1666.61 380.377 1664.64 378.11 1663.24 375.243C1661.84 372.443 1661.14 369.276 1661.14 365.743C1661.14 362.143 1661.84 358.943 1663.24 356.143C1664.71 353.343 1666.71 351.143 1669.24 349.543C1671.71 347.943 1674.44 347.143 1677.44 347.143C1680.24 347.143 1682.81 347.81 1685.14 349.143C1687.48 350.543 1689.24 352.343 1690.44 354.543V350.143C1690.44 349.543 1690.64 349.043 1691.04 348.643C1691.44 348.243 1691.94 348.043 1692.54 348.043C1693.14 348.043 1693.64 348.243 1694.04 348.643ZM1690.74 365.743C1690.74 363.01 1690.18 360.51 1689.04 358.243C1687.98 356.043 1686.48 354.31 1684.54 353.043C1682.61 351.71 1680.41 351.043 1677.94 351.043C1675.54 351.043 1673.38 351.677 1671.44 352.943C1669.51 354.21 1667.98 355.943 1666.84 358.143C1665.78 360.41 1665.24 362.943 1665.24 365.743C1665.24 368.543 1665.78 371.043 1666.84 373.243C1667.91 375.51 1669.41 377.31 1671.34 378.643C1673.28 379.91 1675.48 380.543 1677.94 380.543C1680.41 380.543 1682.61 379.91 1684.54 378.643C1686.48 377.31 1687.98 375.51 1689.04 373.243C1690.18 371.043 1690.74 368.543 1690.74 365.743Z" fill="black"/>
<path d="M1723.64 332.543C1724.04 332.943 1724.24 333.443 1724.24 334.043V381.643C1724.24 382.243 1724.04 382.743 1723.64 383.143C1723.24 383.543 1722.74 383.743 1722.14 383.743C1721.48 383.743 1720.98 383.543 1720.64 383.143C1720.24 382.743 1720.04 382.243 1720.04 381.643V334.043C1720.04 333.443 1720.24 332.943 1720.64 332.543C1720.98 332.143 1721.48 331.943 1722.14 331.943C1722.74 331.943 1723.24 332.143 1723.64 332.543Z" fill="black"/>
<path fill-rule="evenodd" clip-rule="evenodd" d="M987.244 251.343C987.644 256.743 983.644 261.343 978.244 261.743C978.044 261.743 977.811 261.743 977.544 261.743C972.544 261.743 968.244 257.843 967.944 252.743C965.444 219.343 964.844 173.243 964.944 130.143C937.844 133.643 903.244 138.943 867.144 146.943C867.278 154.477 867.478 162.377 867.744 170.643C871.444 239.043 846.144 270.243 824.244 284.543C809.144 294.543 790.944 299.443 770.244 299.443C743.644 299.443 713.144 291.243 680.244 275.043C665.244 282.943 619.844 301.443 528.444 300.243C525.844 320.143 522.444 338.643 517.944 352.843C510.544 376.443 496.344 394.443 476.844 404.843C464.744 411.243 450.444 414.643 436.444 414.643C433.244 414.643 430.077 414.477 426.944 414.143C408.244 411.943 390.544 402.143 379.544 387.743C368.344 373.243 364.044 354.843 366.944 334.443C369.744 314.643 381.344 297.843 399.444 287.043C414.944 277.743 433.944 273.643 451.444 275.643C473.244 278.143 493.144 279.643 511.244 280.343C512.744 265.743 513.944 250.643 514.844 236.443C513.378 238.043 511.811 239.543 510.144 240.943C501.444 248.443 490.644 251.443 478.844 249.743C467.644 248.043 458.344 243.343 451.344 235.943C445.844 245.443 437.044 253.343 423.744 253.543C423.544 253.543 423.378 253.543 423.244 253.543C414.744 253.543 407.044 250.143 401.044 243.843C397.744 240.443 395.144 236.343 392.944 231.743C389.444 236.843 385.644 240.643 382.144 243.343C372.944 250.743 361.444 254.743 349.844 254.743C348.244 254.743 346.611 254.677 344.944 254.543C332.844 253.343 322.044 247.743 314.644 238.843C313.978 238.043 313.378 237.243 312.844 236.443C309.744 241.543 305.744 246.243 300.744 249.443C296.344 252.143 291.544 253.543 286.544 253.543C284.278 253.543 281.978 253.277 279.644 252.743C258.744 247.343 255.444 224.143 252.544 203.543C249.144 178.843 245.844 163.743 230.444 161.443C207.144 157.943 187.644 215.243 181.844 243.443C180.944 248.143 176.744 251.343 172.044 251.243C167.244 251.043 163.344 247.443 162.744 242.743C162.444 240.243 154.744 178.743 164.144 86.1432C164.744 80.8432 169.444 76.9432 174.844 77.5432C180.144 78.0432 183.944 82.8432 183.444 88.1432C179.344 128.343 178.544 162.843 179.044 188.743C190.344 163.143 207.944 138.543 233.244 142.243C264.144 146.843 268.544 178.043 271.744 200.843C274.344 219.543 276.644 231.943 284.344 233.943C286.644 234.543 288.444 234.243 290.344 233.043C297.044 228.843 302.044 214.943 303.544 207.243C303.544 207.11 303.578 207.01 303.644 206.943C303.578 204.877 303.611 202.81 303.744 200.743C306.044 170.643 320.144 149.743 342.444 143.443C359.144 138.843 377.444 143.343 390.544 154.543C391.411 154.343 392.278 154.277 393.144 154.343C398.544 154.643 402.644 159.143 402.344 164.543C401.244 183.743 403.744 218.643 415.044 230.443C417.544 233.043 420.144 234.243 423.444 234.143C433.844 234.043 438.044 218.943 439.244 213.143C439.111 212.81 439.011 212.477 438.944 212.143C435.244 198.043 435.044 180.143 438.044 157.343C438.844 152.043 443.644 148.343 448.944 149.043C454.244 149.743 457.944 154.643 457.244 159.943C454.344 181.743 454.944 196.843 457.644 207.343C458.344 208.543 458.844 209.843 458.944 211.343C463.944 225.643 473.444 229.343 481.744 230.543C488.044 231.543 493.044 230.143 497.544 226.243C505.244 219.743 511.144 206.343 514.544 187.643C517.344 172.643 517.544 159.943 517.544 159.743C517.544 154.443 521.844 150.243 527.144 150.243H527.244C532.544 150.243 536.844 154.543 536.844 159.943C536.844 163.643 536.544 224.143 530.644 280.843C601.944 281.643 642.644 270.043 661.644 262.343C641.144 246.943 607.544 216.343 608.444 181.843C609.344 149.343 630.344 133.743 650.844 132.843C660.644 132.343 670.244 135.243 677.844 140.843C679.778 142.377 681.578 144.043 683.244 145.843C691.444 136.543 703.844 131.343 717.244 132.643C737.544 134.543 757.644 151.643 756.744 185.743C755.844 219.843 721.444 248.443 700.144 262.943C747.144 283.743 787.144 285.743 813.644 268.343C837.844 252.443 849.844 220.643 848.644 176.743C848.578 176.41 848.544 176.077 848.544 175.743C848.278 167.277 848.044 159.177 847.844 151.443C842.511 152.777 837.177 154.143 831.844 155.543C831.044 155.743 830.211 155.843 829.344 155.843C825.044 155.843 821.144 153.043 820.044 148.743C818.644 143.543 821.744 138.243 826.844 136.843C833.711 135.043 840.578 133.31 847.444 131.643C846.044 57.6432 847.844 22.0433 847.844 20.9433C848.044 15.5433 852.544 11.4432 857.944 11.6432C863.244 11.8432 867.444 16.3432 867.244 21.6432C867.144 22.7432 865.444 56.6432 866.644 127.243C903.244 119.343 937.944 114.043 964.944 110.643C965.344 56.0432 966.744 10.7433 966.844 9.84328C966.944 4.54328 971.444 0.343234 976.844 0.543234C982.144 0.643234 986.344 5.14326 986.144 10.4433C986.144 11.3433 984.744 55.1433 984.344 108.343C1005.54 105.943 1018.74 105.143 1019.04 105.143C1024.44 104.743 1029.04 108.843 1029.34 114.143C1029.74 119.443 1025.64 124.043 1020.34 124.443C1019.94 124.443 1006.24 125.343 984.244 127.843C984.144 171.143 984.744 217.843 987.244 251.343ZM384.344 199.743C383.144 190.143 382.744 181.143 382.744 174.343C374.844 163.743 360.244 158.643 347.644 162.143C333.444 166.143 324.744 180.343 323.044 202.143C321.444 224.643 334.244 234.043 346.944 235.243C368.244 237.443 381.844 219.543 384.144 200.743C384.211 200.41 384.278 200.077 384.344 199.743ZM508.944 299.643C490.744 298.843 470.844 297.343 449.244 294.843C446.578 294.577 443.977 294.443 441.444 294.443C409.244 294.443 388.844 318.243 386.144 337.243C383.944 352.543 386.844 365.543 394.844 375.943C402.744 386.243 415.644 393.343 429.144 394.943C453.744 397.743 486.944 386.943 499.444 347.043C503.444 334.443 506.544 317.843 508.944 299.643ZM680.844 252.343C703.444 238.543 736.744 211.643 737.444 185.243C738.044 162.243 726.444 152.943 715.444 151.943C705.644 150.943 694.644 156.743 692.544 169.643C691.844 174.443 687.744 177.843 682.844 177.843C678.044 177.743 673.944 174.043 673.444 169.243C671.944 157.343 661.944 152.143 652.844 152.143C652.511 152.143 652.144 152.143 651.744 152.143C640.544 152.643 628.344 160.843 627.844 182.343C627.144 208.743 658.944 237.343 680.844 252.343Z" fill="black"/>
<path fill-rule="evenodd" clip-rule="evenodd" d="M1115.14 195.143C1113.94 214.143 1105.94 231.343 1093.34 242.443C1083.84 250.743 1072.54 255.043 1060.34 255.043C1059.14 255.043 1057.94 255.01 1056.74 254.943C1039.54 253.743 1025.94 243.343 1018.34 225.543C1008.34 202.343 1011.24 171.343 1024.84 155.143C1028.24 151.043 1034.34 150.443 1038.44 153.843C1039.31 154.577 1040.01 155.443 1040.54 156.443C1051.84 140.443 1067.64 137.043 1080.14 139.843C1099.04 144.143 1117.14 164.543 1115.14 195.143ZM1075.84 158.743C1066.04 156.443 1057.04 163.143 1051.64 176.543C1049.64 181.443 1043.94 183.843 1039.04 181.843C1036.94 181.043 1035.34 179.643 1034.34 177.843C1030.54 189.643 1030.94 205.843 1036.14 217.943C1039.34 225.543 1045.84 234.743 1058.04 235.643C1066.44 236.143 1074.04 233.543 1080.54 227.943C1089.24 220.243 1094.94 207.543 1095.84 193.943C1097.14 174.043 1086.74 161.243 1075.84 158.743Z" fill="black"/>
<path fill-rule="evenodd" clip-rule="evenodd" d="M1350.54 195.043C1349.74 214.343 1341.44 232.443 1328.44 243.543C1319.44 251.243 1308.74 255.243 1297.34 255.243C1295.41 255.243 1293.44 255.11 1291.44 254.843C1280.14 253.543 1270.44 248.643 1263.04 240.743C1254.64 251.343 1244.44 257.243 1234.54 257.243C1232.41 257.243 1230.28 256.943 1228.14 256.343C1222.84 254.943 1210.44 249.043 1209.44 227.043C1209.24 224.243 1209.24 221.243 1209.14 217.943C1208.54 197.543 1207.74 166.743 1192.14 161.143C1188.44 159.743 1184.94 159.943 1181.14 161.743C1166.64 168.643 1154.84 194.843 1151.54 204.343C1151.41 204.81 1151.21 205.277 1150.94 205.743C1150.94 217.343 1150.64 230.343 1149.74 244.543C1149.44 249.743 1145.14 253.643 1140.14 253.643C1139.88 253.643 1139.64 253.643 1139.44 253.643C1134.14 253.343 1130.04 248.743 1130.44 243.343C1133.84 189.043 1128.64 151.743 1128.54 151.343C1127.84 146.143 1131.44 141.243 1136.74 140.443C1142.04 139.643 1146.94 143.343 1147.74 148.643C1147.84 149.243 1148.64 155.443 1149.44 166.043C1155.64 157.143 1163.44 148.843 1172.74 144.343C1181.14 140.343 1190.14 139.843 1198.64 142.943C1226.74 152.943 1227.84 191.743 1228.44 217.443C1228.54 220.643 1228.64 223.543 1228.74 226.243C1229.04 232.543 1230.84 237.043 1233.34 237.743C1236.14 238.543 1243.04 236.043 1249.74 226.143C1250.44 225.043 1251.34 224.243 1252.34 223.543C1252.28 223.477 1252.24 223.443 1252.24 223.443C1243.24 200.643 1246.74 171.243 1260.34 155.043C1263.84 150.943 1269.94 150.443 1273.94 153.843C1274.68 154.443 1275.31 155.11 1275.84 155.843C1287.04 140.343 1302.34 136.743 1314.44 139.243C1333.44 143.243 1351.94 163.743 1350.54 195.043ZM1310.44 158.243C1300.54 156.143 1291.64 163.243 1285.94 177.743C1284.04 182.743 1278.44 185.243 1273.44 183.243C1271.54 182.543 1270.04 181.343 1268.94 179.743C1265.64 190.943 1265.84 205.243 1270.24 216.343C1273.44 224.243 1280.04 234.043 1293.74 235.643C1301.94 236.643 1309.44 234.343 1315.84 228.843C1324.94 221.143 1330.64 208.243 1331.24 194.243C1332.14 173.843 1321.24 160.443 1310.44 158.243Z" fill="black"/>
<path fill-rule="evenodd" clip-rule="evenodd" d="M1746.34 198.143C1744.54 217.343 1735.94 234.243 1722.94 244.743C1713.94 251.943 1703.34 255.643 1691.84 255.643C1689.51 255.643 1687.14 255.476 1684.74 255.143C1672.14 253.543 1661.74 246.843 1654.54 236.043C1647.64 243.643 1638.44 250.643 1627.64 250.643C1625.14 250.643 1622.64 250.243 1620.14 249.443C1612.74 247.243 1606.34 241.443 1601.74 233.443C1595.54 242.343 1586.34 250.443 1573.34 251.043C1572.88 251.11 1572.38 251.143 1571.84 251.143C1563.64 251.143 1556.44 247.943 1550.84 241.943C1547.98 238.877 1545.54 235.11 1543.54 230.643C1540.24 235.143 1536.74 238.643 1533.64 241.143C1524.14 248.943 1512.54 253.143 1501.14 253.143C1499.68 253.143 1498.24 253.077 1496.84 252.943C1487.94 252.043 1478.44 248.243 1471.14 240.643C1469.24 242.443 1467.04 244.443 1464.64 246.343C1455.74 253.143 1448.04 255.343 1441.94 255.343C1438.04 255.343 1434.64 254.443 1432.04 253.243C1415.14 245.843 1408.94 225.543 1413.54 193.043C1415.04 182.443 1417.44 172.343 1419.54 164.643C1413.54 164.843 1406.24 164.843 1398.54 164.443C1397.34 164.377 1396.14 164.31 1394.94 164.243C1394.34 168.043 1393.38 171.71 1392.04 175.243C1388.04 185.743 1380.84 194.343 1371.84 199.343C1367.14 201.943 1361.34 200.243 1358.74 195.543C1356.14 190.943 1357.74 185.043 1362.44 182.443C1370.34 178.043 1374.24 170.243 1375.64 161.643C1361.74 158.743 1352.44 153.743 1347.44 146.543C1340.74 136.743 1339.74 125.843 1345.04 117.343C1349.84 109.643 1358.84 105.543 1368.14 106.843C1379.64 108.543 1388.74 118.043 1392.64 132.243C1393.78 136.576 1394.61 140.777 1395.14 144.843C1405.74 145.743 1418.34 145.843 1431.84 144.643C1435.14 144.343 1438.34 145.743 1440.34 148.343C1442.44 150.943 1442.94 154.343 1441.84 157.443C1441.84 157.643 1435.44 176.243 1432.64 195.943C1429.64 217.743 1432.24 232.243 1439.84 235.543C1445.44 238.043 1455.84 229.143 1461.14 223.143C1459.24 217.143 1458.34 210.043 1458.64 201.843C1459.94 171.043 1475.34 148.943 1499.84 142.743C1515.54 138.743 1532.44 142.343 1544.04 151.243C1545.34 150.843 1546.74 150.643 1548.14 150.843C1553.44 151.543 1557.24 156.343 1556.64 161.643C1554.24 181.543 1554.44 217.443 1564.94 228.743C1567.04 230.943 1569.34 231.943 1572.44 231.743C1584.14 231.143 1591.84 212.743 1593.94 205.443C1593.88 203.777 1593.84 202.11 1593.84 200.443C1593.94 177.543 1594.94 152.943 1596.24 131.243C1574.74 134.843 1564.94 138.143 1564.84 138.243C1563.78 138.576 1562.71 138.743 1561.64 138.743C1557.64 138.743 1553.84 136.243 1552.54 132.243C1550.74 127.143 1553.44 121.643 1558.44 119.943C1559.44 119.643 1571.44 115.543 1597.54 111.343C1599.14 86.6432 1600.84 69.2432 1600.84 68.9432C1601.34 63.5432 1606.14 59.6431 1611.44 60.1431C1616.74 60.6431 1620.64 65.4431 1620.14 70.7431C1620.14 71.0431 1618.64 86.3432 1617.14 108.543C1642.54 105.343 1676.84 102.543 1721.74 101.843C1721.81 101.843 1721.84 101.843 1721.84 101.843C1727.14 101.843 1731.44 106.143 1731.54 111.443C1731.64 116.743 1727.34 121.143 1722.04 121.243C1674.74 121.943 1639.64 125.143 1615.84 128.243C1614.44 150.643 1613.34 176.643 1613.24 200.543C1613.14 216.943 1619.64 229.143 1625.74 230.943C1630.94 232.543 1638.44 226.743 1646.04 215.543C1641.14 193.943 1645.84 168.843 1657.94 154.943C1661.44 150.943 1667.54 150.443 1671.64 154.043C1671.98 154.376 1672.31 154.71 1672.64 155.043C1683.84 142.643 1698.84 137.543 1713.84 141.843C1731.54 146.943 1749.34 166.743 1746.34 198.143ZM1374.94 141.443C1374.61 140.043 1374.28 138.677 1373.94 137.343C1372.14 130.743 1368.94 126.543 1365.34 126.043C1365.14 125.976 1364.91 125.943 1364.64 125.943C1363.34 125.943 1362.04 126.543 1361.44 127.543C1360.44 129.243 1361.14 132.243 1363.44 135.443C1364.94 137.743 1368.94 139.843 1374.94 141.443ZM1536.44 197.343C1536.31 195.343 1536.21 193.276 1536.14 191.143C1535.94 183.543 1536.14 176.443 1536.44 170.943C1530.74 162.643 1516.74 158.443 1504.54 161.543C1495.14 163.843 1479.24 172.343 1478.04 202.643C1477.24 220.743 1485.04 232.343 1498.64 233.643C1518.44 235.643 1533.34 217.343 1536.24 198.543C1536.31 198.143 1536.38 197.743 1536.44 197.343ZM1708.54 160.443C1697.94 157.443 1687.44 163.843 1680.64 177.543C1678.24 182.343 1672.44 184.243 1667.64 181.943C1666.98 181.61 1666.38 181.21 1665.84 180.743C1662.44 192.043 1662.64 206.443 1666.84 217.743C1669.74 225.143 1675.54 234.443 1687.24 235.943C1696.14 237.043 1704.14 234.943 1710.84 229.643C1719.64 222.543 1725.74 210.043 1727.04 196.243C1728.94 175.843 1718.74 163.443 1708.54 160.443Z" fill="black"/>
<path d="M99.7441 243.343C99.9441 248.643 95.8442 253.143 90.5442 253.443C90.3442 253.443 90.1775 253.443 90.0442 253.443C84.9442 253.443 80.6442 249.443 80.3442 244.343C78.2442 203.243 79.0442 127.443 85.8442 55.2431C41.8442 61.5431 11.9442 67.0432 11.4442 67.1432C10.8442 67.2765 10.2775 67.3432 9.74415 67.3432C5.14415 67.3432 1.04416 64.0432 0.144158 59.4432C-0.755842 54.1432 2.64416 49.1432 7.94416 48.1432C8.84416 47.9432 95.9442 31.9432 192.744 22.8432C198.044 22.3432 202.744 26.2432 203.244 31.5432C203.744 36.9432 199.844 41.6432 194.544 42.1432C162.844 45.1432 132.344 48.8432 105.544 52.4432C98.4442 125.043 97.5442 202.043 99.7441 243.343Z" fill="black"/>
</svg>
